<?xml version="1.0" standalone="no"?>
<!DOCTYPE svg PUBLIC "-//W3C//DTD SVG 20010904//EN"
 "http://www.w3.org/TR/2001/REC-SVG-20010904/DTD/svg10.dtd">
<svg version="1.0" xmlns="http://www.w3.org/2000/svg"
 width="490.000000pt" height="490.000000pt" viewBox="0 0 490.000000 490.000000"
 preserveAspectRatio="xMidYMid meet">
<metadata>
Created by potrace 1.15, written by Peter Selinger 2001-2017
</metadata>
<g transform="translate(0.000000,490.000000) scale(0.100000,-0.100000)"
fill="#000000" stroke="none">
<path d="M4653 4630 c-12 -5 -279 -183 -593 -395 -314 -212 -577 -388 -585
-391 -8 -4 -39 14 -72 42 -32 26 -62 51 -66 54 -4 4 26 121 68 260 67 226 74
257 65 286 -7 19 -23 43 -38 55 -24 19 -35 21 -107 16 -148 -11 -340 -73 -457
-149 -81 -52 -180 -148 -231 -222 l-40 -59 -126 6 c-218 10 -461 63 -672 147
-111 44 -143 48 -178 24 -38 -27 -52 -73 -41 -140 16 -96 51 -192 88 -235 23
-27 29 -39 18 -39 -8 0 -94 -5 -191 -11 -176 -11 -218 -8 -358 23 -51 11 -61
10 -91 -6 -97 -52 -70 -159 82 -318 52 -54 54 -51 -68 -63 -36 -4 -96 -15
-135 -26 -38 -11 -107 -23 -153 -26 -97 -7 -125 -24 -143 -83 -11 -35 -9 -43
14 -83 15 -25 54 -70 87 -100 l61 -55 -113 -57 c-96 -48 -118 -55 -149 -50
-66 11 -129 -42 -129 -108 0 -44 62 -121 135 -168 l29 -18 -32 -12 c-18 -6
-68 -28 -112 -50 -44 -21 -97 -43 -117 -49 -21 -5 -43 -13 -49 -17 -25 -18
-44 -60 -44 -97 0 -32 7 -45 42 -80 24 -23 54 -49 68 -58 24 -16 24 -17 6 -31
-11 -8 -67 -31 -125 -52 -58 -20 -114 -44 -123 -52 -21 -19 -33 -73 -24 -108
8 -30 60 -65 97 -65 46 0 255 77 383 142 143 71 188 125 166 194 -12 35 -61
84 -85 84 -8 0 -26 5 -42 11 l-28 11 54 24 c79 35 169 61 274 79 50 9 104 20
119 26 62 25 78 107 30 156 -23 23 -46 32 -121 46 -51 9 -106 24 -123 33 l-31
16 60 34 c87 48 221 90 363 113 115 19 127 23 152 51 50 55 28 135 -45 159
-17 6 -86 15 -151 21 -188 16 -190 20 -26 52 100 19 200 30 320 36 191 9 209
15 236 70 12 27 13 39 4 68 -15 45 -48 66 -123 76 -65 9 -147 42 -187 76 l-25
21 70 1 c39 0 108 5 155 11 47 6 185 14 308 17 l224 7 29 33 c69 77 9 172
-108 172 -52 0 -112 37 -146 88 -16 24 -27 45 -25 48 3 2 58 -13 124 -35 217
-71 303 -85 529 -85 200 -1 325 14 395 47 58 27 74 123 28 169 -20 20 -20 20
2 43 47 50 286 153 306 132 4 -3 -19 -95 -50 -203 -57 -195 -61 -229 -33 -264
7 -9 104 -93 217 -186 240 -200 340 -289 357 -318 20 -34 43 -115 58 -208 15
-92 40 -151 128 -298 163 -271 386 -536 698 -827 48 -45 79 -115 79 -177 0
-30 -29 -202 -66 -394 -20 -105 -19 -103 -123 -133 -80 -23 -213 -25 -291 -4
-165 44 -310 160 -388 311 -55 107 -72 116 -185 97 -110 -18 -306 -18 -392 0
-217 46 -373 165 -476 360 -59 113 -114 141 -187 97 -19 -12 -85 -71 -147
-133 -215 -213 -305 -403 -305 -642 0 -109 12 -189 60 -393 42 -182 51 -261
39 -356 -12 -92 -35 -158 -84 -238 -45 -73 -53 -116 -29 -157 38 -65 122 -66
174 -3 39 47 101 178 126 262 15 51 19 96 18 210 -1 134 -4 160 -47 350 -25
113 -49 234 -52 270 -13 130 29 277 110 385 64 85 164 195 178 195 7 0 25 -21
41 -46 46 -72 176 -194 265 -248 107 -65 249 -112 381 -127 95 -11 243 -8 317
7 26 5 30 1 57 -53 19 -37 61 -90 116 -145 75 -74 101 -93 191 -137 141 -68
207 -84 354 -84 134 -1 236 21 351 73 83 37 89 51 142 325 67 346 68 422 11
541 -30 63 -52 88 -233 264 -212 207 -409 450 -535 664 -69 116 -86 164 -106
287 l-17 105 419 570 c231 313 423 580 426 593 8 32 -14 83 -48 109 -30 23
-47 26 -82 12z m-628 -819 l-207 -281 -91 83 c-51 45 -92 83 -92 84 0 6 590
401 594 398 1 -2 -90 -130 -204 -284z"/>
<path d="M3410 2938 c-72 -48 -90 -148 -40 -218 82 -115 272 -54 272 88 0 90
-50 144 -142 150 -45 3 -61 0 -90 -20z"/>
</g>
</svg>
